<?xml version="1.0" encoding="UTF-8"?>
<svg id="Layer_1" data-name="Layer 1" xmlns="http://www.w3.org/2000/svg" viewBox="0 0 389.97 404.51">
  <defs>
    <style>
      .cls-1 {
        fill: #fff;
      }
    </style>
  </defs>
  <rect class="cls-1" x="177.94" y="8.06" width="30.1" height="14" rx=".95" ry=".95" transform="translate(177.59 208.02) rotate(-89.9)"/>
  <path class="cls-1" d="M108.37,34.63h.3s19.21,17.54,19.21,17.54l.87,1.01.51,1.1.08,1.02-.37.79-6.61,7.24h0l-.75.43h-1.02s-1.14-.4-1.14-.4l-1.09-.77-19.21-17.54-.02-.3,9.24-10.12Z"/>
  <rect class="cls-1" x="255.62" y="42.7" width="29.88" height="13.98" rx="1.18" ry="1.18" transform="translate(34.75 191.34) rotate(-41.4)"/>
  <path class="cls-1" d="M228.75,205.58l-.21.28-.34.05-1.3-.31-3.69-.92-2.64-.85-1.94-.89-1.32-.96-.25-.43v-.49s2.11-6.21,2.11-6.21l2.46-6.08,2.81-5.94,3.16-5.79,3.35-5.39,3.67-5.22,8.46-11.8,3.01-4.72,2.54-4.45,2.15-4.35,1.77-4.28,1.43-4.34,1.05-4.31.82-5.23.34-5.32-.05-4.06-.32-3.99-.6-4.01-.86-3.92-2.09-6.53-2.8-6.2-3.54-5.92-4.18-5.49-4.8-5.05-5.37-4.52-5.87-3.97-6.33-3.36-5.55-2.28-5.64-1.7-5.79-1.11-6.04-.57-6.57-.03-7.32.49-3.56.51-3.61.86-3.64,1.18-3.68,1.53-6.98,3.62-3.25,2.02-3.09,2.15-2.93,2.3-2.77,2.43-2.61,2.56-2.44,2.7h0l-4.05,5.29-3.51,5.74-2.84,5.98-2.19,6.29-1.5,6.51-.79,6.65-.05,6.48.68,6.46,1.41,6.27,2.09,5.9,3.55,7.46,1.9,3.34,1.98,3.08,6.16,8.57,6.33,8.8,4.17,6.61,4.42,8.45,3.66,8.61,2.9,8.75,2.14,8.9h0l.8,4.65.31.88.63.71.84.42.94.07,11.28-1.31.37-.19.16-.39,1.28-39.26.34-.77.78-.31h9.74l.76.32.32.77v38.82l.22.64.58.37,5.54.69,8.82.43,10.87.1.8.32.34.8h0v10.1l-.23.55-.55.23h-64.46l-.68-.25-.34-.63-.85-9.45-.46-4.38-.74-4.34-1.04-4.43-1.29-4.37-1.6-4.48-1.84-4.37-2.13-4.4-2.34-4.26-3.78-5.96-5.99-8.55-5.21-7.38-3.62-5.45-3.79-6.5-3.11-6.49-2.41-6.49-1.73-6.49-.54-3.23-.36-3.85-.19-9.53.27-5.03.64-4.96,1.03-4.98,1.39-4.86,1.79-4.86,2.13-4.72,2.5-4.65,2.83-4.46,3.16-4.3,3.44-4.08,3.72-3.83,3.96-3.58,4.2-3.3,4.4-3,4.59-2.68,4.76-2.36,4.45-1.85,4.48-1.57,4.52-1.27,4.55-.99,4.61-.7,4.61-.41,4.62-.11,4.61.19,7.33.91,7.25,1.66,7.04,2.39,6.9,3.13,3.63,1.99,3.55,2.18,3.44,2.37,3.33,2.55,3.17,2.69,3.03,2.85,2.89,3,2.72,3.14,2.52,3.23,2.35,3.35,2.1,3.38,1.91,3.49,1.71,3.56,1.5,3.65,1.25,3.64,1.03,3.71,1.01,4.77.68,4.76.36,4.76.02,4.74h0l-.38,5.39-.8,5.37-1.22,5.36-1.66,5.35-2.69,6.54-3.57,6.75-4.65,7.37-6.39,9.01-5.86,8.28-3.78,5.98-2.63,5.01-2.38,5.32-2.14,5.62-1.89,5.92Z"/>
  <path class="cls-1" d="M156.36,121.91l.72-3.52,1.06-3.43,1.39-3.31,1.71-3.16,2.01-2.98,2.3-2.77,2.56-2.53,2.8-2.27,3.01-1.98,3.19-1.68,3.34-1.36,3.45-1.03,3.54-.68,3.59-.33,3.6.02,3.59.37,3.53.72,3.44,1.06,3.32,1.39,3.17,1.71,2.99,2.01,2.78,2.29,2.54,2.55,2.28,2.79,1.99,3,1.69,3.18,1.37,3.33,1.03,3.44.69,3.53.34,3.58v3.59s-.38,3.57-.38,3.57h0l-.72,3.52-1.06,3.43-1.39,3.31-1.71,3.16-2.01,2.98-2.3,2.77-2.56,2.53-2.8,2.27-3.01,1.98-3.19,1.68-3.34,1.36-3.45,1.03-3.54.68-3.59.33-3.6-.02-3.59-.37-3.53-.72-3.44-1.06-3.32-1.39-3.17-1.71-2.99-2.01-2.78-2.29-2.54-2.55-2.27-2.79-1.99-3-1.69-3.18-1.37-3.33-1.03-3.44-.69-3.53-.34-3.58v-3.59s.38-3.57.38-3.57ZM168.06,125.46l-.07,2.41.16,2.4.4,2.37.63,2.32.86,2.25,1.07,2.16,1.28,2.04,1.48,1.91,1.66,1.76,1.82,1.59,1.97,1.4,2.1,1.2,2.21.99,2.29.77,2.36.54,2.4.31,2.42.08,2.41-.16,2.39-.39,2.34-.63,2.26-.85,2.17-1.07,2.05-1.27,1.92-1.47,1.76-1.65,1.59-1.81,1.41-1.96,1.21-2.09.99-2.19.77-2.28.54-2.35.31-2.39h0l.07-2.41-.16-2.4-.4-2.37-.63-2.32-.86-2.25-1.07-2.16-1.28-2.04-1.48-1.91-1.66-1.76-1.82-1.59-1.97-1.4-2.1-1.2-2.21-.99-2.29-.77-2.36-.54-2.4-.31-2.42-.08-2.41.16-2.39.39-2.34.63-2.26.85-2.17,1.07-2.05,1.27-1.92,1.47-1.76,1.65-1.59,1.81-1.41,1.96-1.21,2.09-.99,2.19-.77,2.28-.54,2.35-.31,2.39Z"/>
  <rect class="cls-1" x="84.49" y="112.54" width="13.98" height="29" rx="1.04" ry="1.04" transform="translate(-35.72 218.3) rotate(-89.9)"/>
  <path class="cls-1" d="M278.78,132.81l.37-11.6.37-.82.83-.34h27.29l.85.35.35.85v11.6l-.35.85-.85.35h-27.66l-.86-.37-.34-.87Z"/>
  <rect class="cls-1" x="186.14" y="213.04" width="13.02" height="66.94" rx="1.61" ry="1.61" transform="translate(-54.2 438.73) rotate(-89.9)"/>
  <path class="cls-1" d="M192.56,264.91l25.24.21.31.16.06.34-.05.1-1.57,2.33-1.72,2.1-1.95,1.93-2.09,1.69-1.94,1.28-2.04,1.11-4.36,1.68-4.82,1.02-5.11.33-5.12-.36-4.81-1.04-4.35-1.71-2.04-1.12-1.93-1.29-2.08-1.7-1.93-1.95-1.72-2.11-1.56-2.34-.04-.09.06-.34.31-.16,25.25-.07Z"/>
  <path class="cls-1" d="M84.4,310.92l.17.03.38.36-.07.52-15.03,22.13-.27.86.27.86,16.2,23.83.05.11-.06.35-.32.16h-11l-.87-.21-.67-.6-10.06-14.8-.64-.37-.68.26h0l-.11.14-8.5,13.64-.64.79-.82.6-.94.37-1.01.13h-8.1l-.69-.31-.21-.71.02-.12.89-2.2,6.13-9.91,6.39-9.57.57-1.06.23-1-.29-1.67-1.14-2-6.11-9.18-6.42-10.34-.05-.63.46-.42h0l.19-.03h10.33l.81.2.62.56,9,13.23.6.35.65-.24.1-.13,8.32-13.35.48-.46.65-.17h11.19Z"/>
  <path class="cls-1" d="M101.04,346.81v11.28l-.14.72-.41.6-.6.41-.72.14h-7.51l-.49-.2-.2-.49v-47.31l.29-.7.69-.31h20.65l2.78.11,2.39.29,2,.48,1.61.66,1.69,1.02,1.51,1.14,1.34,1.28,1.16,1.4h0l.86,1.33.82,1.8.63,2.19.46,2.55.22,2.68-.02,2.55-.27,2.42-.49,2.03-.73,1.71-1.15,1.83-1.24,1.59-1.4,1.42-1.48,1.19-1.71,1.06-1.8.83-1.94.65-2.21.5-4.88.5h-7.08s-1.92-.05-1.92-.05l-.5.2-.21.5h0ZM101.27,322.47l.55,12.55.41.87.91.33,8.79-.38,1.46-.2,1.39-.45,1.27-.7,1.1-.91.89-1.09.64-1.22.37-1.32.09-1.35h0l-.06-1.24h0l-.2-1.35-.48-1.27-.75-1.17-.98-1.01-1.18-.81-1.32-.58-1.43-.33-1.47-.07-8.79.39-.88.4-.33.91Z"/>
  <path class="cls-1" d="M182.07,311.49l.11-.4.29-.29.41-.11,20.51.08,2.31.12,2.3.35,2.25.57,2.18.78,2.09,1,1.99,1.2,1.86,1.39,1.71,1.56,1.56,1.72,1.37,1.87,1.19,1.99.98,2.1.78,2.18.55,2.25.34,2.29.1,2.32h0v1.98h0l-.13,2.31-.34,2.29-.58,2.25-.79,2.18-.99,2.09-1.21,1.98-1.38,1.86-1.57,1.71-1.72,1.55-1.87,1.37-2,1.19-2.1.98-2.19.77-2.25.56-2.3.33-2.32.11-20.51-.08-.56-.23-.23-.57.16-47.6ZM193.02,322.3v25.56l.41.89.91.37h8.19l2.47-.24,2.37-.71,2.19-1.14,1.91-1.55,1.58-1.88,1.17-2.15.72-2.33.24-2.42v-3.3l-.24-2.42-.72-2.33-1.17-2.15-1.58-1.88-1.91-1.55-2.19-1.14-2.37-.71-2.47-.24h-8.19l-.51.1-.42.29-.29.42-.1.51Z"/>
  <path class="cls-1" d="M311.56,331.28l-.1-.05-.34.06-.16.31v26.89l-.11.57-.33.48-.48.33-.57.11h-8.48l-.69-.28-.28-.68v-47.53l.11-.33.46-.24h7.84l.54.12.45.35,22.78,27.74.15.11.4-.02.2-.36v-26.71l.33-.81.81-.33h7.57l.85.35.36.85.4,13.82.34,11.23-.15,8.57.02,5.82.61,6.39-.23.8-.74.39h-6.97l-1.29-.29-1.04-.81-11.78-14.34-8.79-11.02-1.69-1.49Z"/>
  <path class="cls-1" d="M.76,311.01h34.29l.68.28.28.68v8.14l-.27.65-.64.27H11.88l-.63.26-.26.62h0v7.14l.28.67.66.27h19.99l.83.35.35.83v7.81h0l-.33.8-.81.33H11.74l-.54.23-.23.55v8.1l.3.72.72.3h22.82l.76.22.62.5.37.71.05.8-.84,6.15-.21.6-.42.47-.57.28-.64.02h-.02l-5.14-.54-6.21-.05-17.31.81h-2.3l-1.97-.29-.71-.45-.27-.78v-46.69l.22-.54.54-.22Z"/>
  <path class="cls-1" d="M170.13,330.95v8.46l-.21.52-.52.21h-19.71l-.66.13-.56.37-.37.56-.13.65h0v5.91l.17.86.49.72.72.48.85.17h22.38l.82.27.4.48.14.61v6.83l-.13.66-.36.56-.54.39-.65.15-32.83.08-1.07-.16-.78-.45h0l-.53-.87-.17-1.25.22-44.85.1-.53.3-.46.45-.3.54-.11h33.55l.7.14.59.4.39.59.14.7v6.16l-.16.78-.44.67-.67.44-.78.16h-22.7l-.3.04-.6.4-.23.69v6.58l.35.85.85.35h19.99l.68.28.28.68Z"/>
  <rect class="cls-1" x="235.08" y="311.05" width="10.9" height="49.08" rx=".96" ry=".96" transform="translate(-.59 .42) rotate(-.1)"/>
  <path class="cls-1" d="M267.75,340.13h0l-.18.19.61,9.21.15.32.33.13h22.68l.64.13.55.36.36.55.13.64v5.85l-.12.65-.36.57-.54.39-.64.17-15.78.7-17.49.04-.81-.34-.33-.82v-47l.25-.59.59-.25h34.14l.67.28.28.67v7.89l-.22.7-.43.37-.55.13h-23.7l-.7.29-.29.7v6.86l.27.7.67.34h.11s20.33.01,20.33.01l.63.26.26.63v8.51l-.22.54-.54.22h-20.75Z"/>
  <path class="cls-1" d="M373.78,359.97h-8.62l-.82-.34-.34-.82v-36.63l-.34-.82-.82-.34h-12.68l-.82-.34-.34-.82v-7.66l.34-.82.82-.34h38.65l.82.34.34.82v7.63l-.34.82-.82.34h-12.71l-.82.34-.34.82v36.66l-.11.49-.43.49-.62.18Z"/>
  <path class="cls-1" d="M74.93,400.34l-.05-.4h0s3.84-4.77,3.84-4.77h0l.24-.13.26.08,1.84,1.33,1.85.96,1.85.58,1.85.2,1.56-.12,1.56-.38.66-.38.44-.6.13-.71-.19-.68-.22-.28-.86-.69-1.21-.61-3.5-.94-3.63-.98-1.27-.63-.93-.74-1.67-2.09-1.07-2.36-.35-2.42.35-2.33,1.09-2.21,1.77-1.85,2.36-1.32,2.7-.69,3.04-.1h0l2.13.29,2.11.61,2.09.91,2.07,1.21.66.66.37.85.02.94-.33.87-1,1.6-.45.47-.59.26h-.65s-.59-.24-.59-.24l-.06-.04-2.57-1.48-2.7-.83-2.35-.05-1.01.25-.95.46-1.23,1.08-.18.48.14.49,1,1.09,1.29.78,3.12.99,3.94,1.23,2.85,1.37.27.17,1,.82.81.97.68,1.18.45,1.26.21,1.27v1.28s-.24,1.26-.24,1.26l-.47,1.2-1.03,1.63-1.23,1.32-1.8,1.25-2.2.9-2.39.44-2.69.03-2.84-.41-2.95-.85-2.76-1.22-2.39-1.49Z"/>
  <path class="cls-1" d="M100.91,387.17l.78-2.78,1.32-2.57,1.81-2.26,2.23-1.87,2.57-1.41,2.8-.89,2.93-.33,2.94.23,2.84.79,2.64,1.32,2.33,1.79,1.93,2.2,1.46,2.52.93,2.75.36,2.87-.21,2.88-.78,2.78-1.32,2.57-1.81,2.26-2.23,1.87-2.57,1.41-2.8.89-2.93.33-2.94-.23-2.84-.79-2.64-1.32-2.33-1.79-1.93-2.2-1.46-2.52-.93-2.75-.36-2.87.21-2.88ZM111.24,382.95l-1.26.99-1.04,1.22-.78,1.41-.49,1.54-.18,1.61.14,1.62.45,1.56.74,1.45,1,1.28,1.23,1.07,1.41.81,1.53.52,1.6.21,1.6-.11,1.55-.42,1.43-.72,1.26-.99,1.04-1.22.78-1.41.49-1.54.18-1.61-.14-1.62-.45-1.56-.74-1.45-1-1.28-1.23-1.07-1.41-.81-1.53-.52-1.6-.21-1.6.11-1.55.42-1.43.72Z"/>
  <path class="cls-1" d="M223.91,389.23l.38-2.85.95-2.72,1.48-2.49,1.95-2.16,2.35-1.75,2.66-1.27,2.87-.74,2.97-.19,2.95.37,2.82.92,2.58,1.44,2.24,1.89,1.81,2.28,1.32,2.58.78,2.78.2,2.87-.38,2.85-.95,2.72-1.48,2.49-1.95,2.16-2.35,1.75-2.66,1.27-2.87.74-2.97.19-2.95-.37-2.82-.92-2.58-1.44-2.24-1.89-1.81-2.28-1.32-2.58-.78-2.78-.2-2.87ZM236.82,381.72l-1.5.56-1.36.85-1.16,1.11-.93,1.32-.66,1.48-.36,1.59-.05,1.64.26,1.62.57,1.54.85,1.4,1.09,1.21,1.3.97,1.46.69,1.56.39,1.6.07,1.58-.25,1.5-.56,1.36-.85,1.16-1.11.93-1.32.66-1.48.36-1.59.05-1.64-.26-1.62-.57-1.54-.85-1.4-1.09-1.21-1.3-.97-1.46-.69-1.56-.39-1.6-.07-1.58.25Z"/>
  <path class="cls-1" d="M291.64,395.64l2.08,1.25,1.51.69,1.86.41,2.2.15,2.54-.13.96-.49.63-.88.32-.89-.14-.84-.64-.57-4.04-1.24-3.3-.95-2.29-.95-1.76-1.16-1.3-1.4-.94-1.86-.47-2.13v-2.19s.56-1.95.56-1.95l.64-1.15.87-1.04,1.3-1.13,1.38-.86,1.45-.62,1.5-.39,1.64-.19h1.68s3.77.67,3.77.67l4.02,1.47.12.06.65.54.37.75.05.84-.29.79-.87,1.4-.61.69-.81.44-.92.14-.9-.18-.43-.17-2.48-.88-1.82-.44-1.64-.07-1.38.31-1.58.98-.21.4.11.44,1.67,1.89.87.57.88.32.44.1,3.9.95,2.62.95,1.96,1.18,1.4,1.46.86,1.68.46,2.12.07,2.03-.23,1.78-.52,1.55-.81,1.31h0l-1.08,1.03-1.36.82-1.63.58-1.92.36-3.44.27-2.9-.1-2.53-.48-2.19-.85-1.58-.96-1.52-1.24-.37-.54-.1-.64.16-.62.42-.5.19-.13,1.47-1.21.64-1.02.33-.32h.45Z"/>
  <path class="cls-1" d="M153.08,404.11h-17.28l-.75-.34-.27-.78.45-12.93-.28-12.61.08-.57.3-.49.46-.33.56-.13h4.12l.58.11.49.33.33.49.11.58v19.45l.31.74.74.31h9.65l.81.27.4.48.14.6v3.87l-.28.67-.67.28Z"/>
  <path class="cls-1" d="M158.43,375.88h4.38l.51.11.42.29.28.43.09.51-.18,12.05.06.77.43,3.49.37,1.27.46.91.71.86.89.71,1.11.56,1.2.34,1.17.1,1.14-.15.97-.36.84-.59.67-.81.47-1.04.28-1.8.19-3.4.2-12.85.1-.54.3-.45.46-.31.54-.11h4.02l.55.11.47.31.32.47.11.55.05,14.89-.2,2.54-.52,2.24-.85,1.95-1.18,1.66h0l-1.44,1.32-1.73,1.04-2.04.78-2.33.51-2.86-.04-4.57-.73-1.27-.38-1.9-1.21-1.59-1.93-1.19-2.61-.7-3.08-.47-4.33-.25-4.3-.04-4.26.19-4.22.43-.9.93-.37Z"/>
  <path class="cls-1" d="M209.17,377.3l-.5,3.66-.38.7-.75.28h-6.48l-.77.35-.32.79v19.88l-.33.81-.81.33h-3.74l-.66-.21-.35-.41-.13-.52v-19.88l-.33-.81-.81-.33h-5.29l-.6-.17-.37-.36-.17-.48-.42-3.66.28-.89.85-.38h20.95l.38.06.59.49.16.75Z"/>
  <path class="cls-1" d="M276.94,391.83v-14.35l.12-.61.35-.51h0l.51-.35.61-.12h2.92l.68.13.58.38.4.57.15.68-.29,7.65.04,5.78.78,6.45.17,2.01-.08,2.56-.46,1.14-1.04.65-1.87.24-1.7-.27-.38-.14-.54-.4-12.28-15.27-.12-.09-.33.02-.16.29v14.25l-.3.92-.56.49-.73.18h-3.03l-.64-.13-.53-.37-.34-.55-.09-.64h0v-.1s.27-3.06.27-3.06l.06-3.13-.51-6.51-.06-.48-.26-4.21.23-5.58.08-1.31.17-.72.4-.63.59-.46.7-.24,1.99-.18,1.35.25,1.25.82,1.29,1.5,10.01,13.65.12.1h.32s.16-.3.16-.3Z"/>
  <rect class="cls-1" x="201.86" y="387.07" width="28.1" height="5.88" rx=".91" ry=".91" transform="translate(-174.85 604.56) rotate(-89.8)"/>
</svg>